<?xml version="1.0" standalone="no"?>
<!DOCTYPE svg PUBLIC "-//W3C//DTD SVG 20010904//EN"
 "http://www.w3.org/TR/2001/REC-SVG-20010904/DTD/svg10.dtd">
<svg version="1.0" xmlns="http://www.w3.org/2000/svg"
 width="1023.000000pt" height="1023.000000pt" viewBox="0 0 1023.000000 1023.000000"
 preserveAspectRatio="xMidYMid meet">

<g transform="translate(0.000000,1023.000000) scale(0.100000,-0.100000)"
fill="#000000" stroke="none">
<path d="M5011 8629 c-25 -5 -78 -24 -119 -44 -145 -69 -249 -209 -273 -368
l-11 -77 -192 0 c-212 0 -271 -10 -326 -56 -39 -33 -60 -75 -69 -133 l-6 -46
-455 -1 c-493 0 -486 0 -577 -57 -51 -32 -116 -106 -145 -165 l-23 -47 -5
-1315 c-3 -723 -6 -1312 -8 -1309 -1 3 -59 170 -128 370 -69 200 -163 472
-209 604 -46 132 -126 363 -178 513 -99 286 -111 308 -179 343 -56 29 -110 24
-233 -22 -60 -22 -243 -87 -405 -146 -162 -58 -306 -111 -320 -118 -55 -29
-100 -103 -100 -167 0 -18 23 -102 52 -185 41 -119 57 -153 70 -153 10 0 84
25 164 55 81 30 155 55 165 55 54 0 98 -54 85 -105 -9 -36 -46 -55 -217 -115
-82 -29 -149 -56 -149 -60 0 -10 147 -417 155 -430 3 -5 55 9 116 31 60 21
122 39 138 39 53 0 92 -60 72 -112 -12 -33 -34 -44 -174 -93 -87 -31 -107 -41
-102 -54 15 -37 99 -263 127 -341 16 -47 31 -86 33 -88 1 -1 81 27 178 63 96
36 184 65 195 65 11 0 31 -9 46 -21 32 -25 36 -85 9 -118 -16 -19 -328 -141
-360 -141 -7 0 -13 -3 -13 -7 0 -5 28 -82 61 -173 34 -91 68 -186 77 -212 9
-27 21 -48 27 -48 6 0 58 18 115 40 151 57 163 59 200 22 33 -34 39 -74 15
-109 -9 -13 -62 -38 -142 -68 -71 -26 -130 -48 -132 -50 -7 -7 153 -435 162
-435 6 0 81 27 169 60 196 74 224 76 253 19 21 -40 19 -54 -13 -89 -21 -24
-64 -44 -191 -91 -91 -33 -167 -61 -168 -63 -4 -3 142 -399 152 -416 3 -4 55
12 117 36 132 50 165 54 202 19 45 -42 29 -107 -34 -140 -16 -8 -72 -30 -125
-49 -54 -19 -99 -37 -102 -40 -6 -6 204 -629 230 -681 26 -53 45 -73 91 -97
59 -30 127 -26 237 16 52 19 170 62 263 95 l169 61 1416 0 1416 -1 30 -67 c35
-79 94 -140 168 -176 29 -14 129 -43 222 -65 207 -49 1343 -331 1475 -367 175
-47 301 -23 399 77 53 54 68 97 153 424 38 149 122 468 185 710 63 242 130
501 149 575 19 74 75 288 124 475 261 997 314 1218 318 1309 4 110 -9 163 -58
225 -52 65 -129 103 -275 136 -121 26 -1109 269 -1413 347 l-164 42 6 75 c3
42 7 420 8 841 l3 766 -38 76 c-44 91 -102 146 -197 192 l-65 31 -463 0 -462
0 0 33 c0 67 -50 145 -115 180 -24 13 -72 17 -246 20 l-215 4 -11 72 c-28 200
-190 369 -392 412 -73 15 -153 16 -220 3z m197 -336 c15 -11 38 -35 50 -54 20
-28 23 -44 20 -91 -5 -71 -39 -119 -103 -143 -53 -21 -94 -15 -146 19 -105 70
-87 236 31 285 37 16 117 7 148 -16z m-1198 -858 c3 -55 10 -109 17 -120 20
-36 69 -75 104 -85 49 -14 1929 -13 1966 1 75 28 107 86 113 207 l5 93 351 -1
c193 0 364 -4 381 -9 50 -14 81 -40 103 -85 19 -41 20 -59 20 -517 0 -804 -17
-989 -124 -1379 -36 -129 -70 -251 -76 -270 -6 -19 -58 -219 -115 -445 -176
-691 -280 -1090 -344 -1330 -53 -194 -97 -360 -207 -775 -8 -30 -17 -62 -20
-72 -5 -17 -70 -18 -1443 -16 l-1437 3 -42 27 c-22 15 -54 49 -69 75 l-28 48
3 2305 4 2305 26 45 c30 48 75 79 131 91 20 4 180 7 356 6 l320 -2 5 -100z
m4155 -2064 c374 -94 693 -176 708 -183 43 -17 80 -80 79 -131 -1 -51 -115
-537 -133 -565 -29 -47 -119 -72 -194 -54 -142 34 -1257 318 -1329 338 -111
31 -122 37 -146 77 -25 40 -25 82 -1 166 11 36 39 147 62 245 46 189 62 225
119 264 30 20 44 23 95 19 33 -2 366 -81 740 -176z m-837 -965 c90 -24 175
-52 190 -63 15 -11 34 -38 41 -61 14 -39 13 -48 -23 -188 -55 -217 -73 -244
-158 -244 -53 0 -330 65 -378 88 -41 20 -80 75 -80 113 0 25 55 245 81 327 14
44 61 72 119 72 25 -1 118 -20 208 -44z m941 -231 c213 -57 273 -78 307 -110
50 -48 52 -72 15 -220 -53 -208 -81 -257 -155 -271 -39 -7 -367 78 -416 108
-35 21 -75 98 -67 132 14 68 81 314 89 329 13 26 68 57 102 57 15 0 72 -11
125 -25z m-1274 -555 c38 -11 112 -29 165 -40 107 -24 159 -52 183 -102 15
-31 14 -40 -19 -168 -50 -200 -52 -205 -80 -233 -45 -45 -88 -44 -278 7 -183
49 -207 60 -236 109 -28 44 -25 91 15 241 37 142 55 175 106 193 47 17 64 16
144 -7z m1158 -294 c172 -45 197 -58 224 -110 22 -43 19 -77 -22 -220 -42
-150 -57 -180 -101 -201 -48 -23 -89 -19 -256 26 -169 45 -194 56 -226 103
-30 44 -28 83 14 238 41 150 52 174 97 193 50 22 91 18 270 -29z m-1233 -538
c164 -45 203 -67 221 -129 11 -36 9 -57 -24 -197 -21 -86 -45 -168 -55 -182
-25 -34 -79 -60 -127 -60 -22 0 -113 20 -203 43 -129 35 -169 50 -192 72 -55
53 -56 68 -15 232 53 217 62 233 132 259 47 17 78 12 263 -38z m947 -244 c59
-14 137 -35 173 -46 149 -48 165 -92 106 -298 -62 -218 -101 -239 -322 -175
-180 51 -211 64 -239 97 -45 53 -47 86 -14 216 40 155 54 182 109 210 55 27
55 27 187 -4z"/>
<path d="M5435 6701 c-26 -12 -178 -157 -435 -415 -217 -218 -399 -396 -405
-396 -6 0 -96 86 -200 191 -105 105 -202 197 -217 205 -15 8 -44 14 -65 14
-105 0 -182 -117 -140 -212 15 -34 489 -523 532 -549 40 -25 120 -25 160 -1
17 11 238 225 492 476 348 344 465 466 474 493 42 128 -80 249 -196 194z"/>
<path d="M5454 5886 c-17 -8 -39 -24 -48 -37 -21 -30 -21 -88 0 -118 35 -49
51 -51 529 -51 l445 0 30 28 c45 40 51 97 15 140 -14 17 -43 36 -63 42 -60 16
-869 13 -908 -4z"/>
<path d="M3833 5058 c-24 -12 -53 -64 -53 -97 0 -32 21 -69 49 -88 24 -17 101
-18 1273 -21 1381 -3 1302 -6 1334 61 23 48 12 98 -27 131 l-31 26 -1261 -1
c-868 0 -1269 -4 -1284 -11z"/>
<path d="M3844 4430 c-51 -21 -70 -100 -38 -161 31 -61 -1 -59 966 -59 574 0
896 4 920 10 80 23 106 119 49 182 l-29 33 -924 2 c-512 1 -933 -2 -944 -7z"/>
<path d="M3844 3800 c-32 -13 -54 -50 -54 -92 0 -49 16 -81 50 -101 25 -15 89
-17 670 -17 690 0 682 -1 707 52 28 59 20 114 -24 148 -25 20 -36 20 -677 19
-358 0 -661 -4 -672 -9z"/>
</g>
</svg>
